<svg xmlns="http://www.w3.org/2000/svg" viewBox="0 0 32 32" id="Magnet--Streamline-Twemoji" height="32" width="32">
  <desc>
    Magnet Streamline Emoji: https://streamlinehq.com
  </desc>
  <path fill="#ccd6dd" d="m17.305777777777777 7.394666666666667 -3.425777777777778 -4.152c-0.31555555555555553 -0.3822222222222222 -0.8808888888888888 -0.4364444444444444 -1.263111111111111 -0.12088888888888889l-3.0008888888888885 2.4755555555555557 4.567111111111111 5.536 3.0008888888888885 -2.4755555555555557c0.38311111111111107 -0.31555555555555553 0.4373333333333333 -0.8808888888888888 0.12177777777777778 -1.263111111111111z" stroke-width="0.8889"></path>
  <path fill="#be1931" d="m26.260444444444442 22.24088888888889 -5.536 -4.567111111111111s-2.1288888888888886 2.784 -4.449777777777777 5.468444444444445c-1.7653333333333332 2.0426666666666664 -5.4159999999999995 1.9688888888888887 -7.472 -0.08711111111111111s-2.1288888888888886 -5.706666666666666 -0.08711111111111111 -7.472c2.6844444444444444 -2.320888888888889 5.468444444444445 -4.449777777777777 5.468444444444445 -4.449777777777777l-4.567111111111111 -5.536s-4.552888888888888 3.4915555555555553 -5.878222222222222 4.826666666666666c-4.860444444444444 4.896 -4.8773333333333335 12.815999999999999 0.0008888888888888888 17.69422222222222s12.798222222222222 4.860444444444444 17.69422222222222 0.0008888888888888888c1.3351111111111111 -1.3253333333333333 4.826666666666666 -5.878222222222222 4.826666666666666 -5.878222222222222z" stroke-width="0.8889"></path>
  <path fill="#ccd6dd" d="m24.46311111111111 14.551999999999998 4.152 3.425777777777778c0.3822222222222222 0.31555555555555553 0.4364444444444444 0.8808888888888888 0.12088888888888889 1.263111111111111l-2.4755555555555557 3.0008888888888885 -5.536 -4.567111111111111 2.4755555555555557 -3.0008888888888885c0.31555555555555553 -0.38311111111111107 0.8817777777777778 -0.4373333333333333 1.263111111111111 -0.12177777777777778z" stroke-width="0.8889"></path>
  <path fill="#ffac33" d="M21.081777777777777 3.7537777777777777 19.52 2.16 21.24088888888889 0.47555555555555556c0.005333333333333333 -0.005333333333333333 0.0035555555555555553 -0.013333333333333332 0.007999999999999998 -0.018666666666666668 0.014222222222222221 -0.016888888888888887 0.018666666666666668 -0.034666666666666665 0.023999999999999997 -0.055999999999999994 0.006222222222222222 -0.021333333333333333 0.011555555555555555 -0.0391111111111111 0.008888888888888889 -0.060444444444444446 -0.0008888888888888888 -0.007111111111111111 0.0044444444444444444 -0.013333333333333332 0.0035555555555555553 -0.020444444444444442 -0.0035555555555555553 -0.015111111111111112 -0.017777777777777778 -0.021333333333333333 -0.024888888888888887 -0.033777777777777775 -0.007111111111111111 -0.014222222222222221 -0.0044444444444444444 -0.031111111111111114 -0.015999999999999997 -0.042666666666666665 -0.005333333333333333 -0.005333333333333333 -0.013333333333333332 -0.0035555555555555553 -0.01955555555555555 -0.007999999999999998 -0.017777777777777778 -0.014222222222222221 -0.037333333333333336 -0.018666666666666668 -0.059555555555555556 -0.024888888888888887 -0.01955555555555555 -0.005333333333333333 -0.036444444444444446 -0.010666666666666666 -0.055999999999999994 -0.008888888888888889 -0.007111111111111111 0.0008888888888888888 -0.014222222222222221 -0.005333333333333333 -0.021333333333333333 -0.0035555555555555553L16.522666666666666 1.3155555555555554c-0.056888888888888885 0.014222222222222221 -0.10222222222222221 0.057777777777777775 -0.11911111111111111 0.11466666666666667 -0.015999999999999997 0.056888888888888885 0 0.11822222222222223 0.040888888888888884 0.15999999999999998l1.5617777777777775 1.5946666666666667 -1.72 1.6853333333333331c-0.005333333333333333 0.005333333333333333 -0.0035555555555555553 0.013333333333333332 -0.007999999999999998 0.018666666666666668 -0.014222222222222221 0.016888888888888887 -0.018666666666666668 0.035555555555555556 -0.024888888888888887 0.056888888888888885 -0.006222222222222222 0.021333333333333333 -0.011555555555555555 0.03822222222222222 -0.008888888888888889 0.059555555555555556 0.0008888888888888888 0.007111111111111111 -0.005333333333333333 0.013333333333333332 -0.0035555555555555553 0.021333333333333333 0.005333333333333333 0.022222222222222223 0.020444444444444442 0.03822222222222222 0.033777777777777775 0.05511111111111111 0.0044444444444444444 0.006222222222222222 0.0026666666666666666 0.014222222222222221 0.007999999999999998 0.020444444444444442l0.009777777777777776 0.009777777777777776c0.037333333333333336 0.031999999999999994 0.08444444444444445 0.0391111111111111 0.13066666666666665 0.031999999999999994 0.006222222222222222 -0.0008888888888888888 0.009777777777777776 0.005333333333333333 0.015999999999999997 0.0035555555555555553l4.563555555555555 -1.117333333333333c0.056888888888888885 -0.014222222222222221 0.10222222222222221 -0.057777777777777775 0.11911111111111111 -0.11466666666666667 0.015999999999999997 -0.058666666666666666 0 -0.12 -0.039999999999999994 -0.16177777777777777zm-1.9155555555555552 -1.4764444444444444 0.0044444444444444444 -0.0044444444444444444 -0.0044444444444444444 0.0044444444444444444zm12.680888888888887 11.149333333333333 -1.8266666666666667 -1.2826666666666666 1.384 -1.9706666666666666c0.0044444444444444444 -0.006222222222222222 0.0008888888888888888 -0.013333333333333332 0.0044444444444444444 -0.01955555555555555 0.010666666666666666 -0.01955555555555555 0.011555555555555555 -0.037333333333333336 0.013333333333333332 -0.059555555555555556s0.0044444444444444444 -0.039999999999999994 -0.0017777777777777776 -0.06133333333333334c-0.0017777777777777776 -0.007111111111111111 0.0026666666666666666 -0.013333333333333332 -0.0008888888888888888 -0.020444444444444442 -0.006222222222222222 -0.014222222222222221 -0.021333333333333333 -0.017777777777777778 -0.030222222222222223 -0.029333333333333333 -0.009777777777777776 -0.012444444444444444 -0.010666666666666666 -0.028444444444444442 -0.023999999999999997 -0.03822222222222222 -0.006222222222222222 -0.0044444444444444444 -0.014222222222222221 -0.0008888888888888888 -0.020444444444444442 -0.0044444444444444444 -0.020444444444444442 -0.010666666666666666 -0.039999999999999994 -0.011555555555555555 -0.0631111111111111 -0.013333333333333332 -0.020444444444444442 -0.0017777777777777776 -0.03822222222222222 -0.0035555555555555553 -0.056888888888888885 0.0017777777777777776 -0.007111111111111111 0.0017777777777777776 -0.014222222222222221 -0.0026666666666666666 -0.021333333333333333 0.0008888888888888888l-4.283555555555555 1.9315555555555555c-0.05333333333333333 0.023999999999999997 -0.08977777777777778 0.07555555555555556 -0.09599999999999999 0.13422222222222221 -0.005333333333333333 0.058666666666666666 0.022222222222222223 0.11644444444444445 0.06933333333333333 0.15022222222222223l1.8266666666666667 1.2826666666666666 -1.3831111111111112 1.9706666666666666c-0.0044444444444444444 0.006222222222222222 -0.0008888888888888888 0.013333333333333332 -0.0044444444444444444 0.01955555555555555 -0.010666666666666666 0.01955555555555555 -0.011555555555555555 0.03822222222222222 -0.013333333333333332 0.060444444444444446 -0.0017777777777777776 0.021333333333333333 -0.0044444444444444444 0.039999999999999994 0.0017777777777777776 0.060444444444444446 0.0017777777777777776 0.007111111111111111 -0.0026666666666666666 0.014222222222222221 0.0008888888888888888 0.021333333333333333 0.009777777777777776 0.020444444444444442 0.027555555555555555 0.033777777777777775 0.043555555555555556 0.047999999999999994 0.005333333333333333 0.005333333333333333 0.005333333333333333 0.013333333333333332 0.011555555555555555 0.017777777777777778l0.011555555555555555 0.007111111111111111c0.042666666666666665 0.024888888888888887 0.09066666666666666 0.02311111111111111 0.13422222222222221 0.007111111111111111 0.005333333333333333 -0.0017777777777777776 0.010666666666666666 0.0035555555555555553 0.015999999999999997 0.0008888888888888888l4.282666666666666 -1.9324444444444442c0.05333333333333333 -0.023999999999999997 0.08977777777777778 -0.07555555555555556 0.09599999999999999 -0.13422222222222221 0.0035555555555555553 -0.056888888888888885 -0.02311111111111111 -0.11466666666666667 -0.07022222222222221 -0.14844444444444443zm-2.152888888888889 -1.1022222222222222 0.0035555555555555553 -0.005333333333333333 -0.0035555555555555553 0.005333333333333333z" stroke-width="0.8889"></path>
</svg>